<mxfile host="app.diagrams.net" modified="2021-05-31T10:50:38.106Z" agent="5.0 (X11; Linux x86_64) AppleWebKit/537.36 (KHTML, like Gecko) Chrome/90.0.4430.212 Safari/537.36" etag="5r-i8TjWcbHEEGELm0zb" version="14.6.3" type="github">
  <diagram id="k-SnLn5lwS53oWGkuHHF" name="Page-1">
    <mxGraphModel dx="5706" dy="5692" grid="1" gridSize="10" guides="1" tooltips="1" connect="1" arrows="1" fold="1" page="1" pageScale="1" pageWidth="850" pageHeight="1100" math="0" shadow="0">
      <root>
        <mxCell id="0" />
        <mxCell id="1" parent="0" />
        <mxCell id="N7wOgrsp0_Mr1xzGOLCb-5" value="users" style="swimlane;childLayout=stackLayout;horizontal=1;startSize=30;horizontalStack=0;rounded=1;fontSize=14;fontStyle=1;strokeWidth=2;resizeParent=0;resizeLast=1;shadow=0;dashed=0;align=center;fontFamily=Courier New;fillColor=#dae8fc;strokeColor=#6c8ebf;" vertex="1" parent="1">
          <mxGeometry x="330" y="230" width="160" height="120" as="geometry" />
        </mxCell>
        <mxCell id="N7wOgrsp0_Mr1xzGOLCb-6" value="_id&#xa;name&#xa;email&#xa;password (hashed)&#xa;child_ids" style="align=left;strokeColor=none;fillColor=none;spacingLeft=4;fontSize=12;verticalAlign=top;resizable=0;rotatable=0;part=1;fontFamily=Courier New;" vertex="1" parent="N7wOgrsp0_Mr1xzGOLCb-5">
          <mxGeometry y="30" width="160" height="90" as="geometry" />
        </mxCell>
        <mxCell id="N7wOgrsp0_Mr1xzGOLCb-37" style="edgeStyle=orthogonalEdgeStyle;rounded=0;orthogonalLoop=1;jettySize=auto;html=1;entryX=-0.003;entryY=0.434;entryDx=0;entryDy=0;entryPerimeter=0;fontFamily=Courier New;endArrow=none;endFill=0;" edge="1" parent="1" source="N7wOgrsp0_Mr1xzGOLCb-7" target="N7wOgrsp0_Mr1xzGOLCb-13">
          <mxGeometry relative="1" as="geometry" />
        </mxCell>
        <mxCell id="N7wOgrsp0_Mr1xzGOLCb-7" value="children" style="swimlane;childLayout=stackLayout;horizontal=1;startSize=30;horizontalStack=0;rounded=1;fontSize=14;fontStyle=1;strokeWidth=2;resizeParent=0;resizeLast=1;shadow=0;dashed=0;align=center;fontFamily=Courier New;fillColor=#dae8fc;strokeColor=#6c8ebf;" vertex="1" parent="1">
          <mxGeometry x="220" y="430" width="380" height="220" as="geometry" />
        </mxCell>
        <mxCell id="N7wOgrsp0_Mr1xzGOLCb-8" value="_id&#xa;name&#xa;avatar&#xa;birthday            (UNIX timestamp)&#xa;proficiency_ids     (part of ELO rating system. &#xa;                     Could be deprecated in &#xa;                     phase 2)&#xa;statistic_ids       (ordered list of IDs for stats &#xa;                     documents)&#xa;learning_profile    (document containing fields&#xa;                     used to tune/bias the rec &#xa;                     engine&#39;s behaviour)" style="align=left;strokeColor=none;fillColor=none;spacingLeft=4;fontSize=12;verticalAlign=top;resizable=0;rotatable=0;part=1;fontStyle=0;labelBackgroundColor=none;fontFamily=Courier New;" vertex="1" parent="N7wOgrsp0_Mr1xzGOLCb-7">
          <mxGeometry y="30" width="380" height="190" as="geometry" />
        </mxCell>
        <mxCell id="N7wOgrsp0_Mr1xzGOLCb-12" value="learning_profiles" style="swimlane;childLayout=stackLayout;horizontal=1;startSize=30;horizontalStack=0;rounded=1;fontSize=14;fontStyle=1;strokeWidth=2;resizeParent=0;resizeLast=1;shadow=0;dashed=0;align=center;fontFamily=Courier New;fillColor=#dae8fc;strokeColor=#6c8ebf;" vertex="1" parent="1">
          <mxGeometry x="685" y="415" width="380" height="250" as="geometry" />
        </mxCell>
        <mxCell id="N7wOgrsp0_Mr1xzGOLCb-13" value="(Note: fields in this document schema are subject&#xa;to change in phase 2)&#xa;&#xa;_id&#xa;prof_increase_scalar&#xa;prof_decrease_scalar&#xa;prof_sensitivity&#xa;expected_speed_scalar&#xa;time_sensitivity&#xa;&#xa;k_factor&#xa;incorrect_penalty)factor&#xa;expected_time&#xa;time_multiplier&#xa;" style="align=left;strokeColor=none;fillColor=none;spacingLeft=4;fontSize=12;verticalAlign=top;resizable=0;rotatable=0;part=1;fontStyle=0;labelBackgroundColor=none;fontFamily=Courier New;" vertex="1" parent="N7wOgrsp0_Mr1xzGOLCb-12">
          <mxGeometry y="30" width="380" height="220" as="geometry" />
        </mxCell>
        <mxCell id="N7wOgrsp0_Mr1xzGOLCb-14" value="statistics" style="swimlane;childLayout=stackLayout;horizontal=1;startSize=30;horizontalStack=0;rounded=1;fontSize=14;fontStyle=1;strokeWidth=2;resizeParent=0;resizeLast=1;shadow=0;dashed=0;align=center;fontFamily=Courier New;fillColor=#dae8fc;strokeColor=#6c8ebf;" vertex="1" parent="1">
          <mxGeometry x="-300" y="430" width="450" height="220" as="geometry" />
        </mxCell>
        <mxCell id="N7wOgrsp0_Mr1xzGOLCb-15" value="_id&#xa;course_id       (which course the statistic is recorded for) &#xa;lesson_id       (which lesson of the course)&#xa;num_incorrect   (incorrect clicks)&#xa;time_taken      (seconds)&#xa;date            (UNIX timestamp)&#xa;difficulty      (ELO difficulty rating)&#xa;proficiency     (resultant proficiency)" style="align=left;strokeColor=none;fillColor=none;spacingLeft=4;fontSize=12;verticalAlign=top;resizable=0;rotatable=0;part=1;fontStyle=0;labelBackgroundColor=none;fontFamily=Courier New;" vertex="1" parent="N7wOgrsp0_Mr1xzGOLCb-14">
          <mxGeometry y="30" width="450" height="190" as="geometry" />
        </mxCell>
        <mxCell id="N7wOgrsp0_Mr1xzGOLCb-16" value="proficiencies" style="swimlane;childLayout=stackLayout;horizontal=1;startSize=30;horizontalStack=0;rounded=1;fontSize=14;fontStyle=1;strokeWidth=2;resizeParent=0;resizeLast=1;shadow=0;dashed=0;align=center;fontFamily=Courier New;fillColor=#dae8fc;strokeColor=#6c8ebf;" vertex="1" parent="1">
          <mxGeometry x="330" y="720" width="160" height="120" as="geometry" />
        </mxCell>
        <mxCell id="N7wOgrsp0_Mr1xzGOLCb-17" value="_id&#xa;course_id    &#xa;value" style="align=left;strokeColor=none;fillColor=none;spacingLeft=4;fontSize=12;verticalAlign=top;resizable=0;rotatable=0;part=1;fontStyle=0;labelBackgroundColor=none;fontFamily=Courier New;" vertex="1" parent="N7wOgrsp0_Mr1xzGOLCb-16">
          <mxGeometry y="30" width="160" height="90" as="geometry" />
        </mxCell>
        <mxCell id="N7wOgrsp0_Mr1xzGOLCb-18" value="courses" style="swimlane;childLayout=stackLayout;horizontal=1;startSize=30;horizontalStack=0;rounded=1;fontSize=14;fontStyle=1;strokeWidth=2;resizeParent=0;resizeLast=1;shadow=0;dashed=0;align=center;fontFamily=Courier New;fillColor=#dae8fc;strokeColor=#6c8ebf;" vertex="1" parent="1">
          <mxGeometry x="220" y="-90" width="380" height="130" as="geometry" />
        </mxCell>
        <mxCell id="N7wOgrsp0_Mr1xzGOLCb-19" value="_id&#xa;course_id           (unique name of this course)&#xa;header_image_url    (cover image)&#xa;thumbnail_url       (thumbnail image)&#xa;description         &#xa;lesson_ids          (all lessons under this course)" style="align=left;strokeColor=none;fillColor=none;spacingLeft=4;fontSize=12;verticalAlign=top;resizable=0;rotatable=0;part=1;fontStyle=0;labelBackgroundColor=none;fontFamily=Courier New;" vertex="1" parent="N7wOgrsp0_Mr1xzGOLCb-18">
          <mxGeometry y="30" width="380" height="100" as="geometry" />
        </mxCell>
        <mxCell id="N7wOgrsp0_Mr1xzGOLCb-20" value="lessons" style="swimlane;childLayout=stackLayout;horizontal=1;startSize=30;horizontalStack=0;rounded=1;fontSize=14;fontStyle=1;strokeWidth=2;resizeParent=0;resizeLast=1;shadow=0;dashed=0;align=center;fontFamily=Courier New;fillColor=#dae8fc;strokeColor=#6c8ebf;" vertex="1" parent="1">
          <mxGeometry x="700" y="-110" width="380" height="190" as="geometry" />
        </mxCell>
        <mxCell id="N7wOgrsp0_Mr1xzGOLCb-21" value="_id&#xa;course_id&#xa;lesson_id&#xa;title&#xa;type            (see all the types on Confluence)&#xa;prompt          (message that instructs the parent&#xa;                 in how to guide their child. Eg.&#xa;                 &quot;Tap on the shape to discover what&#xa;                 it is!&quot;)&#xa;question_ids&#xa;&#xa;" style="align=left;strokeColor=none;fillColor=none;spacingLeft=4;fontSize=12;verticalAlign=top;resizable=0;rotatable=0;part=1;fontStyle=0;labelBackgroundColor=none;fontFamily=Courier New;" vertex="1" parent="N7wOgrsp0_Mr1xzGOLCb-20">
          <mxGeometry y="30" width="380" height="160" as="geometry" />
        </mxCell>
        <mxCell id="N7wOgrsp0_Mr1xzGOLCb-22" value="questions" style="swimlane;childLayout=stackLayout;horizontal=1;startSize=30;horizontalStack=0;rounded=1;fontSize=14;fontStyle=1;strokeWidth=2;resizeParent=0;resizeLast=1;shadow=0;dashed=0;align=center;fontFamily=Courier New;fillColor=#dae8fc;strokeColor=#6c8ebf;" vertex="1" parent="1">
          <mxGeometry x="1160" y="-80" width="460" height="160" as="geometry" />
        </mxCell>
        <mxCell id="N7wOgrsp0_Mr1xzGOLCb-23" value="_id&#xa;question_items        (list of all &#39;item&#39; objects needed &#xa;                       to construct the lesson interface.) &#xa;correct_answer        (the correct &#39;item&#39;)&#xa;correct_comment       (affirmation message. Eg. &quot;Nice work!&quot;)&#xa;correct_description   (confirmation message. Eg. &quot;Yes, this&#xa;                       is a &quot;)" style="align=left;strokeColor=none;fillColor=none;spacingLeft=4;fontSize=12;verticalAlign=top;resizable=0;rotatable=0;part=1;fontStyle=0;labelBackgroundColor=none;fontFamily=Courier New;" vertex="1" parent="N7wOgrsp0_Mr1xzGOLCb-22">
          <mxGeometry y="30" width="460" height="130" as="geometry" />
        </mxCell>
        <mxCell id="N7wOgrsp0_Mr1xzGOLCb-28" value="&lt;h1 style=&quot;text-align: left&quot;&gt;Shape Item&lt;/h1&gt;&lt;div style=&quot;text-align: left&quot;&gt;{&lt;/div&gt;&lt;div style=&quot;text-align: left&quot;&gt;&amp;nbsp; &amp;nbsp; &quot;shape&quot;: &quot;square&quot;,&lt;/div&gt;&lt;div style=&quot;text-align: left&quot;&gt;&amp;nbsp; &amp;nbsp; &quot;hue&quot;: &quot;0&quot;&lt;/div&gt;&lt;div style=&quot;text-align: left&quot;&gt;}&lt;/div&gt;&lt;div&gt;&lt;h1 style=&quot;text-align: left&quot;&gt;Colour Item&lt;/h1&gt;&lt;p style=&quot;text-align: left&quot;&gt;&lt;span&gt;{&lt;/span&gt;&lt;br&gt;&lt;/p&gt;&lt;p style=&quot;text-align: left&quot;&gt;&amp;nbsp; &amp;nbsp; &quot;shape&quot;: &quot;square&quot;,&lt;/p&gt;&lt;p style=&quot;text-align: left&quot;&gt;&amp;nbsp; &amp;nbsp; &quot;colour&quot;: &quot;red&quot;,&lt;/p&gt;&lt;p style=&quot;text-align: left&quot;&gt;&amp;nbsp; &amp;nbsp; &quot;hue&quot;: &quot;0&quot;&lt;/p&gt;&lt;p style=&quot;text-align: left&quot;&gt;}&lt;/p&gt;&lt;h1 style=&quot;text-align: left&quot;&gt;Action Item&lt;/h1&gt;&lt;p style=&quot;text-align: left&quot;&gt;{&lt;br&gt;&lt;/p&gt;&lt;p style=&quot;text-align: left&quot;&gt;&amp;nbsp; &amp;nbsp; &quot;media_filename&quot;: &quot;wave.mp4&quot;,&lt;/p&gt;&lt;p style=&quot;text-align: left&quot;&gt;&amp;nbsp; &amp;nbsp; &quot;content_type&quot;: &quot;video&quot;,&lt;/p&gt;&lt;p style=&quot;text-align: left&quot;&gt;&amp;nbsp; &amp;nbsp; &quot;title&quot;: &quot;Waving&quot;&lt;/p&gt;&lt;p style=&quot;text-align: left&quot;&gt;}&lt;/p&gt;&lt;h1 style=&quot;text-align: left&quot;&gt;Object Item&lt;/h1&gt;&lt;div style=&quot;text-align: left&quot;&gt;{&lt;/div&gt;&lt;div style=&quot;text-align: left&quot;&gt;&amp;nbsp; &amp;nbsp; &quot;object&quot;: &quot;ball&quot;,&lt;/div&gt;&lt;div style=&quot;text-align: left&quot;&gt;&amp;nbsp; &amp;nbsp; &quot;title&quot;: &quot;Ball&quot;&lt;/div&gt;&lt;div style=&quot;text-align: left&quot;&gt;}&lt;/div&gt;&lt;div style=&quot;text-align: left&quot;&gt;&lt;br&gt;&lt;/div&gt;&lt;div style=&quot;text-align: left&quot;&gt;&lt;h1&gt;Emotion Item&lt;/h1&gt;&lt;div&gt;{&lt;/div&gt;&lt;div&gt;&amp;nbsp; &amp;nbsp; &quot;object&quot;: &quot;ball&quot;,&lt;/div&gt;&lt;div&gt;&amp;nbsp; &amp;nbsp; &quot;title&quot;: &quot;Ball&quot;&lt;/div&gt;&lt;div&gt;}&lt;/div&gt;&lt;div&gt;&lt;br&gt;&lt;/div&gt;&lt;div&gt;&lt;br&gt;&lt;/div&gt;&lt;div&gt;&lt;br&gt;&lt;/div&gt;&lt;div&gt;&lt;br&gt;&lt;/div&gt;&lt;/div&gt;&lt;div style=&quot;text-align: left&quot;&gt;&lt;br&gt;&lt;/div&gt;&lt;div style=&quot;text-align: left&quot;&gt;&lt;br&gt;&lt;/div&gt;&lt;div style=&quot;text-align: left&quot;&gt;&lt;br&gt;&lt;/div&gt;&lt;h1 style=&quot;text-align: left&quot;&gt;... Further Items&lt;/h1&gt;&lt;p style=&quot;text-align: left&quot;&gt;When the user wants to define new modules/courses, they&#39;ll also have to define the structure of question items which will be used to instruct the frontend how to render it&lt;/p&gt;&lt;/div&gt;" style="rounded=0;whiteSpace=wrap;html=1;labelBackgroundColor=none;fontFamily=Courier New;fillColor=#fff2cc;strokeColor=#d6b656;" vertex="1" parent="1">
          <mxGeometry x="1840" y="-400" width="420" height="1080" as="geometry" />
        </mxCell>
        <mxCell id="N7wOgrsp0_Mr1xzGOLCb-29" value="&lt;h1&gt;&lt;br&gt;&lt;/h1&gt;" style="text;html=1;strokeColor=none;fillColor=none;spacing=5;spacingTop=-20;whiteSpace=wrap;overflow=hidden;rounded=0;labelBackgroundColor=none;fontFamily=Courier New;" vertex="1" parent="1">
          <mxGeometry x="1935" y="190" width="190" height="120" as="geometry" />
        </mxCell>
        <mxCell id="N7wOgrsp0_Mr1xzGOLCb-31" value="&lt;h1&gt;&lt;br&gt;&lt;/h1&gt;" style="text;html=1;strokeColor=none;fillColor=none;spacing=5;spacingTop=-20;whiteSpace=wrap;overflow=hidden;rounded=0;labelBackgroundColor=none;fontFamily=Courier New;" vertex="1" parent="1">
          <mxGeometry x="1585" y="690" width="190" height="120" as="geometry" />
        </mxCell>
        <mxCell id="N7wOgrsp0_Mr1xzGOLCb-33" value="&lt;font style=&quot;font-size: 48px&quot;&gt;TODO:&lt;br&gt;Really need a user-flow diagram for how new courses will be created.&lt;br&gt;Ignore the stuff below&lt;br&gt;&lt;/font&gt;" style="rounded=0;whiteSpace=wrap;html=1;labelBackgroundColor=none;fontFamily=Courier New;fillColor=#f8cecc;strokeColor=#b85450;align=left;" vertex="1" parent="1">
          <mxGeometry x="1730" y="-720" width="770" height="360" as="geometry" />
        </mxCell>
        <mxCell id="N7wOgrsp0_Mr1xzGOLCb-34" value="&lt;div style=&quot;text-align: left ; font-size: 24px&quot;&gt;&lt;font style=&quot;font-size: 24px&quot;&gt;TODO: What should the &quot;question_item&quot; object look like? Currently it looks like:&lt;/font&gt;&lt;/div&gt;&lt;div style=&quot;text-align: left ; font-size: 24px&quot;&gt;&lt;span&gt;&lt;font style=&quot;font-size: 24px&quot;&gt;{&lt;/font&gt;&lt;/span&gt;&lt;/div&gt;&lt;div style=&quot;text-align: left ; font-size: 24px&quot;&gt;&lt;span&gt;&lt;font style=&quot;font-size: 24px&quot;&gt;&amp;nbsp; &amp;nbsp; src:&amp;nbsp; &amp;nbsp;&#39;ball&#39;&lt;/font&gt;&lt;/span&gt;&lt;/div&gt;&lt;div style=&quot;text-align: left ; font-size: 24px&quot;&gt;&lt;span&gt;&lt;font style=&quot;font-size: 24px&quot;&gt;&amp;nbsp; &amp;nbsp; title: &#39;Ball&#39;&lt;/font&gt;&lt;/span&gt;&lt;/div&gt;&lt;div style=&quot;text-align: left ; font-size: 24px&quot;&gt;&lt;font style=&quot;font-size: 24px&quot;&gt;}&lt;/font&gt;&lt;/div&gt;" style="rounded=0;whiteSpace=wrap;html=1;labelBackgroundColor=none;fontFamily=Courier New;fillColor=#f8cecc;strokeColor=#b85450;" vertex="1" parent="1">
          <mxGeometry x="1160" y="-450" width="490" height="360" as="geometry" />
        </mxCell>
        <mxCell id="N7wOgrsp0_Mr1xzGOLCb-35" style="edgeStyle=orthogonalEdgeStyle;rounded=0;orthogonalLoop=1;jettySize=auto;html=1;entryX=0.5;entryY=0;entryDx=0;entryDy=0;fontFamily=Courier New;endArrow=ERoneToMany;endFill=0;" edge="1" parent="1" source="N7wOgrsp0_Mr1xzGOLCb-6" target="N7wOgrsp0_Mr1xzGOLCb-7">
          <mxGeometry relative="1" as="geometry" />
        </mxCell>
        <mxCell id="N7wOgrsp0_Mr1xzGOLCb-36" style="edgeStyle=orthogonalEdgeStyle;rounded=0;orthogonalLoop=1;jettySize=auto;html=1;entryX=0.5;entryY=0;entryDx=0;entryDy=0;fontFamily=Courier New;endArrow=ERzeroToMany;endFill=1;" edge="1" parent="1" source="N7wOgrsp0_Mr1xzGOLCb-8" target="N7wOgrsp0_Mr1xzGOLCb-16">
          <mxGeometry relative="1" as="geometry" />
        </mxCell>
        <mxCell id="N7wOgrsp0_Mr1xzGOLCb-38" style="edgeStyle=orthogonalEdgeStyle;rounded=0;orthogonalLoop=1;jettySize=auto;html=1;entryX=1.001;entryY=0.424;entryDx=0;entryDy=0;entryPerimeter=0;fontFamily=Courier New;endArrow=ERzeroToMany;endFill=1;startArrow=none;startFill=0;" edge="1" parent="1" target="N7wOgrsp0_Mr1xzGOLCb-15">
          <mxGeometry relative="1" as="geometry">
            <mxPoint x="218" y="541" as="sourcePoint" />
          </mxGeometry>
        </mxCell>
        <mxCell id="N7wOgrsp0_Mr1xzGOLCb-39" value="" style="shape=image;verticalLabelPosition=bottom;labelBackgroundColor=#ffffff;verticalAlign=top;aspect=fixed;imageAspect=0;image=https://i.pinimg.com/originals/f6/4f/88/f64f88ec4e9ae6bc12297551cb6b37f1.jpg;" vertex="1" parent="1">
          <mxGeometry x="-230" y="110" width="250.38" height="274" as="geometry" />
        </mxCell>
        <mxCell id="N7wOgrsp0_Mr1xzGOLCb-40" value="&lt;h1&gt;Galactic Ed Data Models&lt;/h1&gt;&lt;p&gt;Document schemas for MongoDB&lt;/p&gt;" style="text;html=1;strokeColor=#9673a6;fillColor=#e1d5e7;spacing=5;spacingTop=-20;whiteSpace=wrap;overflow=hidden;rounded=0;labelBackgroundColor=none;fontFamily=Courier New;align=center;" vertex="1" parent="1">
          <mxGeometry x="-40" y="-420" width="830" height="80" as="geometry" />
        </mxCell>
        <mxCell id="N7wOgrsp0_Mr1xzGOLCb-41" style="edgeStyle=orthogonalEdgeStyle;rounded=0;orthogonalLoop=1;jettySize=auto;html=1;entryX=0;entryY=0.438;entryDx=0;entryDy=0;entryPerimeter=0;fontFamily=Courier New;startArrow=none;startFill=0;endArrow=ERoneToMany;endFill=0;" edge="1" parent="1" source="N7wOgrsp0_Mr1xzGOLCb-19" target="N7wOgrsp0_Mr1xzGOLCb-21">
          <mxGeometry relative="1" as="geometry" />
        </mxCell>
        <mxCell id="N7wOgrsp0_Mr1xzGOLCb-42" style="edgeStyle=orthogonalEdgeStyle;rounded=0;orthogonalLoop=1;jettySize=auto;html=1;entryX=0;entryY=0.5;entryDx=0;entryDy=0;fontFamily=Courier New;startArrow=none;startFill=0;endArrow=ERoneToMany;endFill=0;" edge="1" parent="1" source="N7wOgrsp0_Mr1xzGOLCb-21" target="N7wOgrsp0_Mr1xzGOLCb-22">
          <mxGeometry relative="1" as="geometry" />
        </mxCell>
      </root>
    </mxGraphModel>
  </diagram>
</mxfile>
